<?xml version="1.0" encoding="utf-8"?>
<svg xmlns="http://www.w3.org/2000/svg" xmlns:xlink="http://www.w3.org/1999/xlink" width="600" height="400" viewBox="0 0 2400 1600">
<defs>
  <clipPath id="clip410">
    <rect x="0" y="0" width="2400" height="1600"/>
  </clipPath>
</defs>
<path clip-path="url(#clip410)" d="
M0 1600 L2400 1600 L2400 0 L0 0  Z
  " fill="#ffffff" fill-rule="evenodd" fill-opacity="1"/>
<defs>
  <clipPath id="clip411">
    <rect x="480" y="0" width="1681" height="1600"/>
  </clipPath>
</defs>
<path clip-path="url(#clip410)" d="
M112.177 1486.45 L2352.76 1486.45 L2352.76 47.2441 L112.177 47.2441  Z
  " fill="#ffffff" fill-rule="evenodd" fill-opacity="1"/>
<defs>
  <clipPath id="clip412">
    <rect x="112" y="47" width="2242" height="1440"/>
  </clipPath>
</defs>
<polyline clip-path="url(#clip412)" style="stroke:#000000; stroke-width:2; stroke-opacity:0.1; fill:none" points="
  175.59,1486.45 175.59,47.2441 
  "/>
<polyline clip-path="url(#clip412)" style="stroke:#000000; stroke-width:2; stroke-opacity:0.1; fill:none" points="
  704.028,1486.45 704.028,47.2441 
  "/>
<polyline clip-path="url(#clip412)" style="stroke:#000000; stroke-width:2; stroke-opacity:0.1; fill:none" points="
  1232.47,1486.45 1232.47,47.2441 
  "/>
<polyline clip-path="url(#clip412)" style="stroke:#000000; stroke-width:2; stroke-opacity:0.1; fill:none" points="
  1760.9,1486.45 1760.9,47.2441 
  "/>
<polyline clip-path="url(#clip412)" style="stroke:#000000; stroke-width:2; stroke-opacity:0.1; fill:none" points="
  2289.34,1486.45 2289.34,47.2441 
  "/>
<polyline clip-path="url(#clip410)" style="stroke:#000000; stroke-width:4; stroke-opacity:1; fill:none" points="
  112.177,1486.45 2352.76,1486.45 
  "/>
<polyline clip-path="url(#clip410)" style="stroke:#000000; stroke-width:4; stroke-opacity:1; fill:none" points="
  175.59,1486.45 175.59,1469.18 
  "/>
<polyline clip-path="url(#clip410)" style="stroke:#000000; stroke-width:4; stroke-opacity:1; fill:none" points="
  704.028,1486.45 704.028,1469.18 
  "/>
<polyline clip-path="url(#clip410)" style="stroke:#000000; stroke-width:4; stroke-opacity:1; fill:none" points="
  1232.47,1486.45 1232.47,1469.18 
  "/>
<polyline clip-path="url(#clip410)" style="stroke:#000000; stroke-width:4; stroke-opacity:1; fill:none" points="
  1760.9,1486.45 1760.9,1469.18 
  "/>
<polyline clip-path="url(#clip410)" style="stroke:#000000; stroke-width:4; stroke-opacity:1; fill:none" points="
  2289.34,1486.45 2289.34,1469.18 
  "/>
<path clip-path="url(#clip410)" d="M 0 0 M142.743 1543.18 L150.382 1543.18 L150.382 1516.82 L142.071 1518.49 L142.071 1514.23 L150.335 1512.56 L155.011 1512.56 L155.011 1543.18 L162.65 1543.18 L162.65 1547.12 L142.743 1547.12 L142.743 1543.18 Z" fill="#000000" fill-rule="evenodd" fill-opacity="1" /><path clip-path="url(#clip410)" d="M 0 0 M172.094 1541.24 L176.979 1541.24 L176.979 1547.12 L172.094 1547.12 L172.094 1541.24 Z" fill="#000000" fill-rule="evenodd" fill-opacity="1" /><path clip-path="url(#clip410)" d="M 0 0 M197.164 1515.64 Q193.553 1515.64 191.724 1519.2 Q189.918 1522.75 189.918 1529.87 Q189.918 1536.98 191.724 1540.55 Q193.553 1544.09 197.164 1544.09 Q200.798 1544.09 202.604 1540.55 Q204.432 1536.98 204.432 1529.87 Q204.432 1522.75 202.604 1519.2 Q200.798 1515.64 197.164 1515.64 M197.164 1511.93 Q202.974 1511.93 206.029 1516.54 Q209.108 1521.12 209.108 1529.87 Q209.108 1538.6 206.029 1543.21 Q202.974 1547.79 197.164 1547.79 Q191.354 1547.79 188.275 1543.21 Q185.219 1538.6 185.219 1529.87 Q185.219 1521.12 188.275 1516.54 Q191.354 1511.93 197.164 1511.93 Z" fill="#000000" fill-rule="evenodd" fill-opacity="1" /><path clip-path="url(#clip410)" d="M 0 0 M671.679 1543.18 L679.318 1543.18 L679.318 1516.82 L671.008 1518.49 L671.008 1514.23 L679.271 1512.56 L683.947 1512.56 L683.947 1543.18 L691.586 1543.18 L691.586 1547.12 L671.679 1547.12 L671.679 1543.18 Z" fill="#000000" fill-rule="evenodd" fill-opacity="1" /><path clip-path="url(#clip410)" d="M 0 0 M701.03 1541.24 L705.915 1541.24 L705.915 1547.12 L701.03 1547.12 L701.03 1541.24 Z" fill="#000000" fill-rule="evenodd" fill-opacity="1" /><path clip-path="url(#clip410)" d="M 0 0 M716.146 1512.56 L734.503 1512.56 L734.503 1516.5 L720.429 1516.5 L720.429 1524.97 Q721.447 1524.62 722.466 1524.46 Q723.484 1524.27 724.503 1524.27 Q730.29 1524.27 733.669 1527.44 Q737.049 1530.62 737.049 1536.03 Q737.049 1541.61 733.577 1544.71 Q730.104 1547.79 723.785 1547.79 Q721.609 1547.79 719.341 1547.42 Q717.095 1547.05 714.688 1546.31 L714.688 1541.61 Q716.771 1542.74 718.993 1543.3 Q721.216 1543.86 723.692 1543.86 Q727.697 1543.86 730.035 1541.75 Q732.373 1539.64 732.373 1536.03 Q732.373 1532.42 730.035 1530.31 Q727.697 1528.21 723.692 1528.21 Q721.817 1528.21 719.942 1528.62 Q718.091 1529.04 716.146 1529.92 L716.146 1512.56 Z" fill="#000000" fill-rule="evenodd" fill-opacity="1" /><path clip-path="url(#clip410)" d="M 0 0 M1203.71 1543.18 L1220.02 1543.18 L1220.02 1547.12 L1198.08 1547.12 L1198.08 1543.18 Q1200.74 1540.43 1205.33 1535.8 Q1209.93 1531.15 1211.11 1529.81 Q1213.36 1527.28 1214.24 1525.55 Q1215.14 1523.79 1215.14 1522.1 Q1215.14 1519.34 1213.2 1517.61 Q1211.27 1515.87 1208.17 1515.87 Q1205.97 1515.87 1203.52 1516.63 Q1201.09 1517.4 1198.31 1518.95 L1198.31 1514.23 Q1201.14 1513.09 1203.59 1512.51 Q1206.04 1511.93 1208.08 1511.93 Q1213.45 1511.93 1216.64 1514.62 Q1219.84 1517.31 1219.84 1521.8 Q1219.84 1523.93 1219.03 1525.85 Q1218.24 1527.74 1216.14 1530.34 Q1215.56 1531.01 1212.46 1534.23 Q1209.35 1537.42 1203.71 1543.18 Z" fill="#000000" fill-rule="evenodd" fill-opacity="1" /><path clip-path="url(#clip410)" d="M 0 0 M1229.84 1541.24 L1234.72 1541.24 L1234.72 1547.12 L1229.84 1547.12 L1229.84 1541.24 Z" fill="#000000" fill-rule="evenodd" fill-opacity="1" /><path clip-path="url(#clip410)" d="M 0 0 M1254.91 1515.64 Q1251.3 1515.64 1249.47 1519.2 Q1247.66 1522.75 1247.66 1529.87 Q1247.66 1536.98 1249.47 1540.55 Q1251.3 1544.09 1254.91 1544.09 Q1258.54 1544.09 1260.35 1540.55 Q1262.18 1536.98 1262.18 1529.87 Q1262.18 1522.75 1260.35 1519.2 Q1258.54 1515.64 1254.91 1515.64 M1254.91 1511.93 Q1260.72 1511.93 1263.77 1516.54 Q1266.85 1521.12 1266.85 1529.87 Q1266.85 1538.6 1263.77 1543.21 Q1260.72 1547.79 1254.91 1547.79 Q1249.1 1547.79 1246.02 1543.21 Q1242.96 1538.6 1242.96 1529.87 Q1242.96 1521.12 1246.02 1516.54 Q1249.1 1511.93 1254.91 1511.93 Z" fill="#000000" fill-rule="evenodd" fill-opacity="1" /><path clip-path="url(#clip410)" d="M 0 0 M1732.64 1543.18 L1748.96 1543.18 L1748.96 1547.12 L1727.02 1547.12 L1727.02 1543.18 Q1729.68 1540.43 1734.26 1535.8 Q1738.87 1531.15 1740.05 1529.81 Q1742.29 1527.28 1743.17 1525.55 Q1744.08 1523.79 1744.08 1522.1 Q1744.08 1519.34 1742.13 1517.61 Q1740.21 1515.87 1737.11 1515.87 Q1734.91 1515.87 1732.46 1516.63 Q1730.03 1517.4 1727.25 1518.95 L1727.25 1514.23 Q1730.07 1513.09 1732.53 1512.51 Q1734.98 1511.93 1737.02 1511.93 Q1742.39 1511.93 1745.58 1514.62 Q1748.78 1517.31 1748.78 1521.8 Q1748.78 1523.93 1747.97 1525.85 Q1747.18 1527.74 1745.07 1530.34 Q1744.49 1531.01 1741.39 1534.23 Q1738.29 1537.42 1732.64 1543.18 Z" fill="#000000" fill-rule="evenodd" fill-opacity="1" /><path clip-path="url(#clip410)" d="M 0 0 M1758.78 1541.24 L1763.66 1541.24 L1763.66 1547.12 L1758.78 1547.12 L1758.78 1541.24 Z" fill="#000000" fill-rule="evenodd" fill-opacity="1" /><path clip-path="url(#clip410)" d="M 0 0 M1773.89 1512.56 L1792.25 1512.56 L1792.25 1516.5 L1778.17 1516.5 L1778.17 1524.97 Q1779.19 1524.62 1780.21 1524.46 Q1781.23 1524.27 1782.25 1524.27 Q1788.03 1524.27 1791.41 1527.44 Q1794.79 1530.62 1794.79 1536.03 Q1794.79 1541.61 1791.32 1544.71 Q1787.85 1547.79 1781.53 1547.79 Q1779.35 1547.79 1777.09 1547.42 Q1774.84 1547.05 1772.43 1546.31 L1772.43 1541.61 Q1774.52 1542.74 1776.74 1543.3 Q1778.96 1543.86 1781.44 1543.86 Q1785.44 1543.86 1787.78 1541.75 Q1790.12 1539.64 1790.12 1536.03 Q1790.12 1532.42 1787.78 1530.31 Q1785.44 1528.21 1781.44 1528.21 Q1779.56 1528.21 1777.69 1528.62 Q1775.84 1529.04 1773.89 1529.92 L1773.89 1512.56 Z" fill="#000000" fill-rule="evenodd" fill-opacity="1" /><path clip-path="url(#clip410)" d="M 0 0 M2270.65 1528.49 Q2274.01 1529.2 2275.88 1531.47 Q2277.78 1533.74 2277.78 1537.07 Q2277.78 1542.19 2274.26 1544.99 Q2270.74 1547.79 2264.26 1547.79 Q2262.09 1547.79 2259.77 1547.35 Q2257.48 1546.93 2255.03 1546.08 L2255.03 1541.56 Q2256.97 1542.7 2259.29 1543.28 Q2261.6 1543.86 2264.12 1543.86 Q2268.52 1543.86 2270.81 1542.12 Q2273.13 1540.38 2273.13 1537.07 Q2273.13 1534.02 2270.98 1532.31 Q2268.85 1530.57 2265.03 1530.57 L2261 1530.57 L2261 1526.73 L2265.21 1526.73 Q2268.66 1526.73 2270.49 1525.36 Q2272.32 1523.97 2272.32 1521.38 Q2272.32 1518.72 2270.42 1517.31 Q2268.54 1515.87 2265.03 1515.87 Q2263.11 1515.87 2260.91 1516.29 Q2258.71 1516.7 2256.07 1517.58 L2256.07 1513.42 Q2258.73 1512.68 2261.04 1512.31 Q2263.38 1511.93 2265.44 1511.93 Q2270.77 1511.93 2273.87 1514.37 Q2276.97 1516.77 2276.97 1520.89 Q2276.97 1523.76 2275.33 1525.75 Q2273.68 1527.72 2270.65 1528.49 Z" fill="#000000" fill-rule="evenodd" fill-opacity="1" /><path clip-path="url(#clip410)" d="M 0 0 M2286.65 1541.24 L2291.53 1541.24 L2291.53 1547.12 L2286.65 1547.12 L2286.65 1541.24 Z" fill="#000000" fill-rule="evenodd" fill-opacity="1" /><path clip-path="url(#clip410)" d="M 0 0 M2311.72 1515.64 Q2308.1 1515.64 2306.28 1519.2 Q2304.47 1522.75 2304.47 1529.87 Q2304.47 1536.98 2306.28 1540.55 Q2308.1 1544.09 2311.72 1544.09 Q2315.35 1544.09 2317.16 1540.55 Q2318.98 1536.98 2318.98 1529.87 Q2318.98 1522.75 2317.16 1519.2 Q2315.35 1515.64 2311.72 1515.64 M2311.72 1511.93 Q2317.53 1511.93 2320.58 1516.54 Q2323.66 1521.12 2323.66 1529.87 Q2323.66 1538.6 2320.58 1543.21 Q2317.53 1547.79 2311.72 1547.79 Q2305.91 1547.79 2302.83 1543.21 Q2299.77 1538.6 2299.77 1529.87 Q2299.77 1521.12 2302.83 1516.54 Q2305.91 1511.93 2311.72 1511.93 Z" fill="#000000" fill-rule="evenodd" fill-opacity="1" /><polyline clip-path="url(#clip412)" style="stroke:#000000; stroke-width:2; stroke-opacity:0.1; fill:none" points="
  112.177,1183.84 2352.76,1183.84 
  "/>
<polyline clip-path="url(#clip412)" style="stroke:#000000; stroke-width:2; stroke-opacity:0.1; fill:none" points="
  112.177,877.569 2352.76,877.569 
  "/>
<polyline clip-path="url(#clip412)" style="stroke:#000000; stroke-width:2; stroke-opacity:0.1; fill:none" points="
  112.177,571.299 2352.76,571.299 
  "/>
<polyline clip-path="url(#clip412)" style="stroke:#000000; stroke-width:2; stroke-opacity:0.1; fill:none" points="
  112.177,265.03 2352.76,265.03 
  "/>
<polyline clip-path="url(#clip410)" style="stroke:#000000; stroke-width:4; stroke-opacity:1; fill:none" points="
  112.177,1486.45 112.177,47.2441 
  "/>
<polyline clip-path="url(#clip410)" style="stroke:#000000; stroke-width:4; stroke-opacity:1; fill:none" points="
  112.177,1183.84 139.064,1183.84 
  "/>
<polyline clip-path="url(#clip410)" style="stroke:#000000; stroke-width:4; stroke-opacity:1; fill:none" points="
  112.177,877.569 139.064,877.569 
  "/>
<polyline clip-path="url(#clip410)" style="stroke:#000000; stroke-width:4; stroke-opacity:1; fill:none" points="
  112.177,571.299 139.064,571.299 
  "/>
<polyline clip-path="url(#clip410)" style="stroke:#000000; stroke-width:4; stroke-opacity:1; fill:none" points="
  112.177,265.03 139.064,265.03 
  "/>
<path clip-path="url(#clip410)" d="M 0 0 M59.8578 1197.18 L76.1772 1197.18 L76.1772 1201.12 L54.2328 1201.12 L54.2328 1197.18 Q56.8949 1194.43 61.4782 1189.8 Q66.0846 1185.15 67.2652 1183.8 Q69.5105 1181.28 70.3902 1179.54 Q71.2929 1177.79 71.2929 1176.1 Q71.2929 1173.34 69.3485 1171.6 Q67.4272 1169.87 64.3254 1169.87 Q62.1263 1169.87 59.6726 1170.63 Q57.2421 1171.4 54.4643 1172.95 L54.4643 1168.22 Q57.2884 1167.09 59.7421 1166.51 Q62.1958 1165.93 64.2328 1165.93 Q69.6031 1165.93 72.7976 1168.62 Q75.992 1171.3 75.992 1175.79 Q75.992 1177.92 75.1818 1179.85 Q74.3948 1181.74 72.2883 1184.34 Q71.7096 1185.01 68.6078 1188.22 Q65.5059 1191.42 59.8578 1197.18 Z" fill="#000000" fill-rule="evenodd" fill-opacity="1" /><path clip-path="url(#clip410)" d="M 0 0 M69.0476 876.215 Q72.404 876.932 74.279 879.201 Q76.1772 881.469 76.1772 884.803 Q76.1772 889.918 72.6587 892.719 Q69.1402 895.52 62.6587 895.52 Q60.4828 895.52 58.168 895.08 Q55.8764 894.664 53.4227 893.807 L53.4227 889.293 Q55.3671 890.427 57.6819 891.006 Q59.9967 891.585 62.5198 891.585 Q66.918 891.585 69.2096 889.849 Q71.5244 888.113 71.5244 884.803 Q71.5244 881.747 69.3717 880.034 Q67.242 878.298 63.4226 878.298 L59.3949 878.298 L59.3949 874.455 L63.6078 874.455 Q67.0569 874.455 68.8855 873.09 Q70.7142 871.701 70.7142 869.108 Q70.7142 866.446 68.8161 865.034 Q66.9411 863.599 63.4226 863.599 Q61.5013 863.599 59.3023 864.016 Q57.1032 864.432 54.4643 865.312 L54.4643 861.145 Q57.1264 860.405 59.4412 860.034 Q61.7791 859.664 63.8393 859.664 Q69.1633 859.664 72.2652 862.094 Q75.367 864.502 75.367 868.622 Q75.367 871.492 73.7235 873.483 Q72.08 875.451 69.0476 876.215 Z" fill="#000000" fill-rule="evenodd" fill-opacity="1" /><path clip-path="url(#clip410)" d="M 0 0 M66.5939 558.093 L54.7884 576.542 L66.5939 576.542 L66.5939 558.093 M65.367 554.019 L71.2466 554.019 L71.2466 576.542 L76.1772 576.542 L76.1772 580.431 L71.2466 580.431 L71.2466 588.579 L66.5939 588.579 L66.5939 580.431 L50.9921 580.431 L50.9921 575.917 L65.367 554.019 Z" fill="#000000" fill-rule="evenodd" fill-opacity="1" /><path clip-path="url(#clip410)" d="M 0 0 M55.2745 247.75 L73.6309 247.75 L73.6309 251.685 L59.5569 251.685 L59.5569 260.157 Q60.5754 259.81 61.5939 259.648 Q62.6124 259.463 63.6309 259.463 Q69.418 259.463 72.7976 262.634 Q76.1772 265.805 76.1772 271.222 Q76.1772 276.8 72.705 279.902 Q69.2328 282.981 62.9134 282.981 Q60.7374 282.981 58.4689 282.611 Q56.2236 282.24 53.8162 281.5 L53.8162 276.8 Q55.8995 277.935 58.1217 278.49 Q60.3439 279.046 62.8208 279.046 Q66.8254 279.046 69.1633 276.939 Q71.5013 274.833 71.5013 271.222 Q71.5013 267.611 69.1633 265.504 Q66.8254 263.398 62.8208 263.398 Q60.9458 263.398 59.0708 263.814 Q57.2189 264.231 55.2745 265.111 L55.2745 247.75 Z" fill="#000000" fill-rule="evenodd" fill-opacity="1" /><polyline clip-path="url(#clip412)" style="stroke:#009af9; stroke-width:4; stroke-opacity:1; fill:none" points="
  175.59,1336.97 281.277,1373.33 386.965,1395.84 492.653,1409.38 598.34,1416.52 704.028,1418.7 809.716,1416.71 915.404,1410.93 1021.09,1401.48 1126.78,1388.22 
  1232.47,1370.78 1338.15,1348.53 1443.84,1320.49 1549.53,1285.21 1655.22,1240.47 1760.9,1182.92 1866.59,1107.13 1972.28,1003.97 2077.97,856.628 2183.66,630.768 
  2289.34,243.48 
  "/>
<polyline clip-path="url(#clip412)" style="stroke:#e26f46; stroke-width:4; stroke-opacity:1; fill:none" points="
  175.59,1336.97 281.277,1372.37 386.965,1394.21 492.653,1407.21 598.34,1413.86 704.028,1415.55 809.716,1413.03 915.404,1406.67 1021.09,1396.54 1126.78,1382.46 
  1232.47,1364.02 1338.15,1340.51 1443.84,1310.85 1549.53,1273.42 1655.22,1225.76 1760.9,1164.08 1866.59,1082.17 1972.28,969.377 2077.97,805.6 2183.66,548.183 
  2289.34,87.9763 
  "/>
<polyline clip-path="url(#clip412)" style="stroke:#3da44d; stroke-width:4; stroke-opacity:1; fill:none" points="
  175.59,1336.97 281.277,1382.91 386.965,1410.83 492.653,1428.21 598.34,1438.67 704.028,1444.13 809.716,1445.72 915.404,1444.04 1021.09,1439.47 1126.78,1432.13 
  1232.47,1422.03 1338.15,1409.04 1443.84,1392.87 1549.53,1373.1 1655.22,1349.14 1760.9,1320.12 1866.59,1284.89 1972.28,1241.77 2077.97,1188.42 2183.66,1121.38 
  2289.34,1035.42 
  "/>
<path clip-path="url(#clip410)" d="
M1558.73 337.138 L2278.07 337.138 L2278.07 95.2176 L1558.73 95.2176  Z
  " fill="#ffffff" fill-rule="evenodd" fill-opacity="1"/>
<polyline clip-path="url(#clip410)" style="stroke:#000000; stroke-width:4; stroke-opacity:1; fill:none" points="
  1558.73,337.138 2278.07,337.138 2278.07,95.2176 1558.73,95.2176 1558.73,337.138 
  "/>
<polyline clip-path="url(#clip410)" style="stroke:#009af9; stroke-width:4; stroke-opacity:1; fill:none" points="
  1583.62,155.698 1732.99,155.698 
  "/>
<path clip-path="url(#clip410)" d="M 0 0 M1757.89 138.418 L1787.12 138.418 L1787.12 142.353 L1774.86 142.353 L1774.86 172.978 L1770.16 172.978 L1770.16 142.353 L1757.89 142.353 L1757.89 138.418 Z" fill="#000000" fill-rule="evenodd" fill-opacity="1" /><path clip-path="url(#clip410)" d="M 0 0 M1801.5 150.038 Q1798.07 150.038 1796.08 152.723 Q1794.09 155.385 1794.09 160.038 Q1794.09 164.691 1796.06 167.376 Q1798.05 170.038 1801.5 170.038 Q1804.9 170.038 1806.89 167.353 Q1808.88 164.667 1808.88 160.038 Q1808.88 155.431 1806.89 152.746 Q1804.9 150.038 1801.5 150.038 M1801.5 146.427 Q1807.05 146.427 1810.23 150.038 Q1813.4 153.649 1813.4 160.038 Q1813.4 166.404 1810.23 170.038 Q1807.05 173.649 1801.5 173.649 Q1795.92 173.649 1792.75 170.038 Q1789.6 166.404 1789.6 160.038 Q1789.6 153.649 1792.75 150.038 Q1795.92 146.427 1801.5 146.427 Z" fill="#000000" fill-rule="evenodd" fill-opacity="1" /><path clip-path="url(#clip410)" d="M 0 0 M1835.43 172.978 L1835.43 162.075 L1827.49 162.075 Q1823.95 162.075 1821.59 159.876 Q1819.46 157.885 1819.46 153.626 L1819.46 147.052 L1823.72 147.052 L1823.72 153.232 Q1823.72 155.941 1824.92 157.306 Q1826.15 158.672 1828.56 158.672 L1835.43 158.672 L1835.43 147.052 L1839.69 147.052 L1839.69 172.978 L1835.43 172.978 Z" fill="#000000" fill-rule="evenodd" fill-opacity="1" /><path clip-path="url(#clip410)" d="M 0 0 M1848.3 147.052 L1852.59 147.052 L1852.59 157.63 L1866.41 157.63 L1866.41 147.052 L1870.69 147.052 L1870.69 172.978 L1866.41 172.978 L1866.41 161.033 L1852.59 161.033 L1852.59 172.978 L1848.3 172.978 L1848.3 147.052 Z" fill="#000000" fill-rule="evenodd" fill-opacity="1" /><path clip-path="url(#clip410)" d="M 0 0 M1879.3 147.052 L1883.58 147.052 L1883.58 157.63 L1897.4 157.63 L1897.4 147.052 L1901.68 147.052 L1901.68 172.978 L1897.4 172.978 L1897.4 161.033 L1883.58 161.033 L1883.58 172.978 L1879.3 172.978 L1879.3 147.052 Z" fill="#000000" fill-rule="evenodd" fill-opacity="1" /><path clip-path="url(#clip410)" d="M 0 0 M1920.5 150.038 Q1917.08 150.038 1915.09 152.723 Q1913.1 155.385 1913.1 160.038 Q1913.1 164.691 1915.06 167.376 Q1917.05 170.038 1920.5 170.038 Q1923.91 170.038 1925.9 167.353 Q1927.89 164.667 1927.89 160.038 Q1927.89 155.431 1925.9 152.746 Q1923.91 150.038 1920.5 150.038 M1920.5 146.427 Q1926.06 146.427 1929.23 150.038 Q1932.4 153.649 1932.4 160.038 Q1932.4 166.404 1929.23 170.038 Q1926.06 173.649 1920.5 173.649 Q1914.92 173.649 1911.75 170.038 Q1908.61 166.404 1908.61 160.038 Q1908.61 153.649 1911.75 150.038 Q1914.92 146.427 1920.5 146.427 Z" fill="#000000" fill-rule="evenodd" fill-opacity="1" /><path clip-path="url(#clip410)" d="M 0 0 M1961.64 158.95 L1961.64 161.033 L1942.05 161.033 Q1942.33 165.431 1944.69 167.746 Q1947.08 170.038 1951.31 170.038 Q1953.77 170.038 1956.06 169.436 Q1958.37 168.834 1960.64 167.63 L1960.64 171.658 Q1958.35 172.63 1955.94 173.14 Q1953.54 173.649 1951.06 173.649 Q1944.85 173.649 1941.22 170.038 Q1937.61 166.427 1937.61 160.269 Q1937.61 153.904 1941.04 150.177 Q1944.48 146.427 1950.32 146.427 Q1955.55 146.427 1958.58 149.806 Q1961.64 153.163 1961.64 158.95 M1957.38 157.7 Q1957.33 154.205 1955.41 152.121 Q1953.51 150.038 1950.36 150.038 Q1946.8 150.038 1944.65 152.052 Q1942.52 154.066 1942.19 157.723 L1957.38 157.7 Z" fill="#000000" fill-rule="evenodd" fill-opacity="1" /><path clip-path="url(#clip410)" d="M 0 0 M1987.82 169.089 L1987.82 182.839 L1983.54 182.839 L1983.54 147.052 L1987.82 147.052 L1987.82 150.987 Q1989.16 148.672 1991.2 147.561 Q1993.26 146.427 1996.1 146.427 Q2000.83 146.427 2003.77 150.177 Q2006.73 153.927 2006.73 160.038 Q2006.73 166.149 2003.77 169.899 Q2000.83 173.649 1996.1 173.649 Q1993.26 173.649 1991.2 172.538 Q1989.16 171.403 1987.82 169.089 M2002.31 160.038 Q2002.31 155.339 2000.36 152.677 Q1998.44 149.992 1995.06 149.992 Q1991.68 149.992 1989.74 152.677 Q1987.82 155.339 1987.82 160.038 Q1987.82 164.737 1989.74 167.422 Q1991.68 170.084 1995.06 170.084 Q1998.44 170.084 2000.36 167.422 Q2002.31 164.737 2002.31 160.038 Z" fill="#000000" fill-rule="evenodd" fill-opacity="1" /><path clip-path="url(#clip410)" d="M 0 0 M2035.97 158.95 L2035.97 161.033 L2016.38 161.033 Q2016.66 165.431 2019.02 167.746 Q2021.41 170.038 2025.64 170.038 Q2028.1 170.038 2030.39 169.436 Q2032.7 168.834 2034.97 167.63 L2034.97 171.658 Q2032.68 172.63 2030.27 173.14 Q2027.86 173.649 2025.39 173.649 Q2019.18 173.649 2015.55 170.038 Q2011.94 166.427 2011.94 160.269 Q2011.94 153.904 2015.36 150.177 Q2018.81 146.427 2024.65 146.427 Q2029.88 146.427 2032.91 149.806 Q2035.97 153.163 2035.97 158.95 M2031.71 157.7 Q2031.66 154.205 2029.74 152.121 Q2027.84 150.038 2024.69 150.038 Q2021.13 150.038 2018.97 152.052 Q2016.85 154.066 2016.52 157.723 L2031.71 157.7 Z" fill="#000000" fill-rule="evenodd" fill-opacity="1" /><path clip-path="url(#clip410)" d="M 0 0 M2062.31 169.575 L2073.28 169.575 L2073.28 147.052 L2077.56 147.052 L2077.56 172.978 L2042.79 172.978 L2042.79 147.052 L2047.08 147.052 L2047.08 169.575 L2058.03 169.575 L2058.03 147.052 L2062.31 147.052 L2062.31 169.575 Z" fill="#000000" fill-rule="evenodd" fill-opacity="1" /><path clip-path="url(#clip410)" d="M 0 0 M2108.51 158.95 L2108.51 161.033 L2088.93 161.033 Q2089.21 165.431 2091.57 167.746 Q2093.95 170.038 2098.19 170.038 Q2100.64 170.038 2102.93 169.436 Q2105.25 168.834 2107.52 167.63 L2107.52 171.658 Q2105.22 172.63 2102.82 173.14 Q2100.41 173.649 2097.93 173.649 Q2091.73 173.649 2088.09 170.038 Q2084.48 166.427 2084.48 160.269 Q2084.48 153.904 2087.91 150.177 Q2091.36 146.427 2097.19 146.427 Q2102.42 146.427 2105.46 149.806 Q2108.51 153.163 2108.51 158.95 M2104.25 157.7 Q2104.21 154.205 2102.28 152.121 Q2100.39 150.038 2097.24 150.038 Q2093.67 150.038 2091.52 152.052 Q2089.39 154.066 2089.07 157.723 L2104.25 157.7 Z" fill="#000000" fill-rule="evenodd" fill-opacity="1" /><path clip-path="url(#clip410)" d="M 0 0 M2115.34 147.052 L2119.62 147.052 L2119.62 157.63 L2133.44 157.63 L2133.44 147.052 L2137.72 147.052 L2137.72 172.978 L2133.44 172.978 L2133.44 161.033 L2119.62 161.033 L2119.62 172.978 L2115.34 172.978 L2115.34 147.052 Z" fill="#000000" fill-rule="evenodd" fill-opacity="1" /><path clip-path="url(#clip410)" d="M 0 0 M2168.53 147.052 L2168.53 172.978 L2164.3 172.978 L2164.3 152.167 L2151.8 172.978 L2146.34 172.978 L2146.34 147.052 L2150.57 147.052 L2150.57 167.816 L2163.05 147.052 L2168.53 147.052 Z" fill="#000000" fill-rule="evenodd" fill-opacity="1" /><path clip-path="url(#clip410)" d="M 0 0 M2199.48 158.95 L2199.48 161.033 L2179.9 161.033 Q2180.18 165.431 2182.54 167.746 Q2184.92 170.038 2189.16 170.038 Q2191.61 170.038 2193.9 169.436 Q2196.22 168.834 2198.49 167.63 L2198.49 171.658 Q2196.2 172.63 2193.79 173.14 Q2191.38 173.649 2188.9 173.649 Q2182.7 173.649 2179.07 170.038 Q2175.46 166.427 2175.46 160.269 Q2175.46 153.904 2178.88 150.177 Q2182.33 146.427 2188.16 146.427 Q2193.4 146.427 2196.43 149.806 Q2199.48 153.163 2199.48 158.95 M2195.22 157.7 Q2195.18 154.205 2193.26 152.121 Q2191.36 150.038 2188.21 150.038 Q2184.65 150.038 2182.49 152.052 Q2180.36 154.066 2180.04 157.723 L2195.22 157.7 Z" fill="#000000" fill-rule="evenodd" fill-opacity="1" /><polyline clip-path="url(#clip410)" style="stroke:#e26f46; stroke-width:4; stroke-opacity:1; fill:none" points="
  1583.62,216.178 1732.99,216.178 
  "/>
<path clip-path="url(#clip410)" d="M 0 0 M1757.89 198.898 L1764.86 198.898 L1773.68 222.416 L1782.54 198.898 L1789.51 198.898 L1789.51 233.458 L1784.95 233.458 L1784.95 203.11 L1776.04 226.814 L1771.34 226.814 L1762.43 203.11 L1762.43 233.458 L1757.89 233.458 L1757.89 198.898 Z" fill="#000000" fill-rule="evenodd" fill-opacity="1" /><path clip-path="url(#clip410)" d="M 0 0 M1820.78 219.43 L1820.78 221.513 L1801.2 221.513 Q1801.48 225.911 1803.84 228.226 Q1806.22 230.518 1810.46 230.518 Q1812.91 230.518 1815.2 229.916 Q1817.52 229.314 1819.79 228.11 L1819.79 232.138 Q1817.49 233.11 1815.09 233.62 Q1812.68 234.129 1810.2 234.129 Q1804 234.129 1800.36 230.518 Q1796.75 226.907 1796.75 220.749 Q1796.75 214.384 1800.18 210.657 Q1803.63 206.907 1809.46 206.907 Q1814.69 206.907 1817.73 210.286 Q1820.78 213.643 1820.78 219.43 M1816.52 218.18 Q1816.48 214.685 1814.55 212.601 Q1812.66 210.518 1809.51 210.518 Q1805.94 210.518 1803.79 212.532 Q1801.66 214.546 1801.34 218.203 L1816.52 218.18 Z" fill="#000000" fill-rule="evenodd" fill-opacity="1" /><path clip-path="url(#clip410)" d="M 0 0 M1824.69 207.532 L1849.53 207.532 L1849.53 210.935 L1839.21 210.935 L1839.21 233.458 L1835.02 233.458 L1835.02 210.935 L1824.69 210.935 L1824.69 207.532 Z" fill="#000000" fill-rule="evenodd" fill-opacity="1" /><path clip-path="url(#clip410)" d="M 0 0 M1865.43 210.518 Q1862.01 210.518 1860.02 213.203 Q1858.03 215.865 1858.03 220.518 Q1858.03 225.171 1859.99 227.856 Q1861.98 230.518 1865.43 230.518 Q1868.84 230.518 1870.83 227.833 Q1872.82 225.147 1872.82 220.518 Q1872.82 215.911 1870.83 213.226 Q1868.84 210.518 1865.43 210.518 M1865.43 206.907 Q1870.99 206.907 1874.16 210.518 Q1877.33 214.129 1877.33 220.518 Q1877.33 226.884 1874.16 230.518 Q1870.99 234.129 1865.43 234.129 Q1859.86 234.129 1856.68 230.518 Q1853.54 226.884 1853.54 220.518 Q1853.54 214.129 1856.68 210.518 Q1859.86 206.907 1865.43 206.907 Z" fill="#000000" fill-rule="evenodd" fill-opacity="1" /><path clip-path="url(#clip410)" d="M 0 0 M1890.18 230.055 L1902.54 230.055 L1902.54 210.935 L1893.58 210.935 L1893.58 214.175 Q1893.58 223.712 1890.85 228.805 L1890.18 230.055 M1884 230.055 Q1886.11 229.129 1887.03 227.161 Q1889.3 222.277 1889.3 212.439 L1889.3 207.532 L1906.82 207.532 L1906.82 230.055 L1910.23 230.055 L1910.23 240.008 L1906.82 240.008 L1906.82 233.458 L1885.8 233.458 L1885.8 240.008 L1882.4 240.008 L1882.4 230.055 L1884 230.055 Z" fill="#000000" fill-rule="evenodd" fill-opacity="1" /><path clip-path="url(#clip410)" d="M 0 0 M1937.1 202.74 L1937.1 215.726 L1942.98 215.726 Q1946.24 215.726 1948.03 214.036 Q1949.81 212.347 1949.81 209.222 Q1949.81 206.12 1948.03 204.43 Q1946.24 202.74 1942.98 202.74 L1937.1 202.74 M1932.42 198.898 L1942.98 198.898 Q1948.79 198.898 1951.75 201.536 Q1954.74 204.152 1954.74 209.222 Q1954.74 214.337 1951.75 216.953 Q1948.79 219.569 1942.98 219.569 L1937.1 219.569 L1937.1 233.458 L1932.42 233.458 L1932.42 198.898 Z" fill="#000000" fill-rule="evenodd" fill-opacity="1" /><path clip-path="url(#clip410)" d="M 0 0 M1971.61 235.865 Q1969.81 240.495 1968.1 241.907 Q1966.38 243.319 1963.51 243.319 L1960.11 243.319 L1960.11 239.754 L1962.61 239.754 Q1964.37 239.754 1965.34 238.92 Q1966.31 238.087 1967.49 234.985 L1968.26 233.041 L1957.77 207.532 L1962.29 207.532 L1970.39 227.809 L1978.49 207.532 L1983 207.532 L1971.61 235.865 Z" fill="#000000" fill-rule="evenodd" fill-opacity="1" /><path clip-path="url(#clip410)" d="M 0 0 M1988.72 207.532 L1993 207.532 L1993 218.11 L2006.82 218.11 L2006.82 207.532 L2011.1 207.532 L2011.1 233.458 L2006.82 233.458 L2006.82 221.513 L1993 221.513 L1993 233.458 L1988.72 233.458 L1988.72 207.532 Z" fill="#000000" fill-rule="evenodd" fill-opacity="1" /><path clip-path="url(#clip410)" d="M 0 0 M2019.72 233.458 L2019.72 207.532 L2038 207.532 L2038 210.935 L2024 210.935 L2024 233.458 L2019.72 233.458 Z" fill="#000000" fill-rule="evenodd" fill-opacity="1" /><path clip-path="url(#clip410)" d="M 0 0 M2066.96 219.43 L2066.96 221.513 L2047.38 221.513 Q2047.66 225.911 2050.02 228.226 Q2052.4 230.518 2056.64 230.518 Q2059.09 230.518 2061.38 229.916 Q2063.7 229.314 2065.97 228.11 L2065.97 232.138 Q2063.67 233.11 2061.27 233.62 Q2058.86 234.129 2056.38 234.129 Q2050.18 234.129 2046.54 230.518 Q2042.93 226.907 2042.93 220.749 Q2042.93 214.384 2046.36 210.657 Q2049.81 206.907 2055.64 206.907 Q2060.87 206.907 2063.91 210.286 Q2066.96 213.643 2066.96 219.43 M2062.7 218.18 Q2062.66 214.685 2060.73 212.601 Q2058.84 210.518 2055.69 210.518 Q2052.12 210.518 2049.97 212.532 Q2047.84 214.546 2047.52 218.203 L2062.7 218.18 Z" fill="#000000" fill-rule="evenodd" fill-opacity="1" /><path clip-path="url(#clip410)" d="M 0 0 M2071.8 218.573 L2084.28 218.573 L2084.28 222.37 L2071.8 222.37 L2071.8 218.573 Z" fill="#000000" fill-rule="evenodd" fill-opacity="1" /><path clip-path="url(#clip410)" d="M 0 0 M2091.24 198.898 L2095.92 198.898 L2095.92 215.981 L2112.63 198.898 L2118.63 198.898 L2105.27 212.555 L2119.32 233.458 L2114.23 233.458 L2102.24 215.657 L2095.92 222.115 L2095.92 233.458 L2091.24 233.458 L2091.24 198.898 Z" fill="#000000" fill-rule="evenodd" fill-opacity="1" /><path clip-path="url(#clip410)" d="M 0 0 M2135.5 235.865 Q2133.7 240.495 2131.98 241.907 Q2130.27 243.319 2127.4 243.319 L2124 243.319 L2124 239.754 L2126.5 239.754 Q2128.26 239.754 2129.23 238.92 Q2130.2 238.087 2131.38 234.985 L2132.15 233.041 L2121.66 207.532 L2126.17 207.532 L2134.28 227.809 L2142.38 207.532 L2146.89 207.532 L2135.5 235.865 Z" fill="#000000" fill-rule="evenodd" fill-opacity="1" /><path clip-path="url(#clip410)" d="M 0 0 M2149.69 207.532 L2174.53 207.532 L2174.53 210.935 L2164.21 210.935 L2164.21 233.458 L2160.02 233.458 L2160.02 210.935 L2149.69 210.935 L2149.69 207.532 Z" fill="#000000" fill-rule="evenodd" fill-opacity="1" /><path clip-path="url(#clip410)" d="M 0 0 M2177.31 207.532 L2202.15 207.532 L2202.15 210.935 L2191.82 210.935 L2191.82 233.458 L2187.63 233.458 L2187.63 210.935 L2177.31 210.935 L2177.31 207.532 Z" fill="#000000" fill-rule="evenodd" fill-opacity="1" /><path clip-path="url(#clip410)" d="M 0 0 M2219.78 220.425 Q2214.62 220.425 2212.63 221.606 Q2210.64 222.786 2210.64 225.634 Q2210.64 227.902 2212.12 229.245 Q2213.63 230.564 2216.2 230.564 Q2219.74 230.564 2221.87 228.064 Q2224.02 225.541 2224.02 221.374 L2224.02 220.425 L2219.78 220.425 M2228.28 218.666 L2228.28 233.458 L2224.02 233.458 L2224.02 229.522 Q2222.56 231.883 2220.39 233.018 Q2218.21 234.129 2215.06 234.129 Q2211.08 234.129 2208.72 231.907 Q2206.38 229.661 2206.38 225.911 Q2206.38 221.536 2209.3 219.314 Q2212.24 217.092 2218.05 217.092 L2224.02 217.092 L2224.02 216.675 Q2224.02 213.735 2222.08 212.138 Q2220.15 210.518 2216.66 210.518 Q2214.44 210.518 2212.33 211.05 Q2210.22 211.583 2208.28 212.647 L2208.28 208.712 Q2210.62 207.81 2212.82 207.37 Q2215.02 206.907 2217.1 206.907 Q2222.72 206.907 2225.5 209.823 Q2228.28 212.74 2228.28 218.666 Z" fill="#000000" fill-rule="evenodd" fill-opacity="1" /><polyline clip-path="url(#clip410)" style="stroke:#3da44d; stroke-width:4; stroke-opacity:1; fill:none" points="
  1583.62,276.658 1732.99,276.658 
  "/>
<path clip-path="url(#clip410)" d="M 0 0 M1757.89 259.378 L1764.86 259.378 L1773.68 282.896 L1782.54 259.378 L1789.51 259.378 L1789.51 293.938 L1784.95 293.938 L1784.95 263.59 L1776.04 287.294 L1771.34 287.294 L1762.43 263.59 L1762.43 293.938 L1757.89 293.938 L1757.89 259.378 Z" fill="#000000" fill-rule="evenodd" fill-opacity="1" /><path clip-path="url(#clip410)" d="M 0 0 M1820.78 279.91 L1820.78 281.993 L1801.2 281.993 Q1801.48 286.391 1803.84 288.706 Q1806.22 290.998 1810.46 290.998 Q1812.91 290.998 1815.2 290.396 Q1817.52 289.794 1819.79 288.59 L1819.79 292.618 Q1817.49 293.59 1815.09 294.1 Q1812.68 294.609 1810.2 294.609 Q1804 294.609 1800.36 290.998 Q1796.75 287.387 1796.75 281.229 Q1796.75 274.864 1800.18 271.137 Q1803.63 267.387 1809.46 267.387 Q1814.69 267.387 1817.73 270.766 Q1820.78 274.123 1820.78 279.91 M1816.52 278.66 Q1816.48 275.165 1814.55 273.081 Q1812.66 270.998 1809.51 270.998 Q1805.94 270.998 1803.79 273.012 Q1801.66 275.026 1801.34 278.683 L1816.52 278.66 Z" fill="#000000" fill-rule="evenodd" fill-opacity="1" /><path clip-path="url(#clip410)" d="M 0 0 M1824.69 268.012 L1849.53 268.012 L1849.53 271.415 L1839.21 271.415 L1839.21 293.938 L1835.02 293.938 L1835.02 271.415 L1824.69 271.415 L1824.69 268.012 Z" fill="#000000" fill-rule="evenodd" fill-opacity="1" /><path clip-path="url(#clip410)" d="M 0 0 M1865.43 270.998 Q1862.01 270.998 1860.02 273.683 Q1858.03 276.345 1858.03 280.998 Q1858.03 285.651 1859.99 288.336 Q1861.98 290.998 1865.43 290.998 Q1868.84 290.998 1870.83 288.313 Q1872.82 285.627 1872.82 280.998 Q1872.82 276.391 1870.83 273.706 Q1868.84 270.998 1865.43 270.998 M1865.43 267.387 Q1870.99 267.387 1874.16 270.998 Q1877.33 274.609 1877.33 280.998 Q1877.33 287.364 1874.16 290.998 Q1870.99 294.609 1865.43 294.609 Q1859.86 294.609 1856.68 290.998 Q1853.54 287.364 1853.54 280.998 Q1853.54 274.609 1856.68 270.998 Q1859.86 267.387 1865.43 267.387 Z" fill="#000000" fill-rule="evenodd" fill-opacity="1" /><path clip-path="url(#clip410)" d="M 0 0 M1890.18 290.535 L1902.54 290.535 L1902.54 271.415 L1893.58 271.415 L1893.58 274.655 Q1893.58 284.192 1890.85 289.285 L1890.18 290.535 M1884 290.535 Q1886.11 289.609 1887.03 287.641 Q1889.3 282.757 1889.3 272.919 L1889.3 268.012 L1906.82 268.012 L1906.82 290.535 L1910.23 290.535 L1910.23 300.488 L1906.82 300.488 L1906.82 293.938 L1885.8 293.938 L1885.8 300.488 L1882.4 300.488 L1882.4 290.535 L1884 290.535 Z" fill="#000000" fill-rule="evenodd" fill-opacity="1" /><path clip-path="url(#clip410)" d="M 0 0 M1930.34 286.391 Q1935.23 290.766 1941.15 290.766 Q1947.26 290.766 1950.02 287.479 Q1952.77 284.192 1953.28 278.66 L1934.81 278.66 L1934.81 274.725 L1953.28 274.725 Q1952.77 269.192 1950.02 265.905 Q1947.26 262.595 1941.15 262.595 Q1935.23 262.595 1930.34 266.97 L1930.34 262.04 Q1935.16 258.753 1941.43 258.753 Q1949.18 258.753 1953.7 263.567 Q1958.21 268.359 1958.21 276.669 Q1958.21 285.002 1953.7 289.817 Q1949.18 294.609 1941.43 294.609 Q1935.25 294.609 1930.34 291.276 L1930.34 286.391 Z" fill="#000000" fill-rule="evenodd" fill-opacity="1" /><path clip-path="url(#clip410)" d="M 0 0 M1987.38 268.012 L1987.38 293.938 L1983.14 293.938 L1983.14 273.127 L1970.64 293.938 L1965.18 293.938 L1965.18 268.012 L1969.41 268.012 L1969.41 288.776 L1981.89 268.012 L1987.38 268.012 M1969.04 257.919 L1971.78 257.919 Q1972.03 259.655 1973.14 260.535 Q1974.28 261.391 1976.29 261.391 Q1978.28 261.391 1979.39 260.535 Q1980.5 259.678 1980.8 257.919 L1983.54 257.919 Q1983.3 261.229 1981.48 262.896 Q1979.65 264.563 1976.29 264.563 Q1972.93 264.563 1971.1 262.896 Q1969.28 261.229 1969.04 257.919 Z" fill="#000000" fill-rule="evenodd" fill-opacity="1" /><path clip-path="url(#clip410)" d="M 0 0 M1993.44 293.938 L1993.44 290.396 Q1997.66 289.748 1998.95 286.831 Q2000.53 282.734 2000.53 272.248 L2000.53 268.012 L2018.05 268.012 L2018.05 293.938 L2013.79 293.938 L2013.79 271.415 L2004.79 271.415 L2004.79 273.984 Q2004.79 283.984 2002.75 288.475 Q2000.57 293.266 1993.44 293.938 Z" fill="#000000" fill-rule="evenodd" fill-opacity="1" /><path clip-path="url(#clip410)" d="M 0 0 M2048.63 279.91 L2048.63 281.993 L2029.04 281.993 Q2029.32 286.391 2031.68 288.706 Q2034.07 290.998 2038.3 290.998 Q2040.76 290.998 2043.05 290.396 Q2045.36 289.794 2047.63 288.59 L2047.63 292.618 Q2045.34 293.59 2042.93 294.1 Q2040.53 294.609 2038.05 294.609 Q2031.85 294.609 2028.21 290.998 Q2024.6 287.387 2024.6 281.229 Q2024.6 274.864 2028.03 271.137 Q2031.47 267.387 2037.31 267.387 Q2042.54 267.387 2045.57 270.766 Q2048.63 274.123 2048.63 279.91 M2044.37 278.66 Q2044.32 275.165 2042.4 273.081 Q2040.5 270.998 2037.35 270.998 Q2033.79 270.998 2031.64 273.012 Q2029.51 275.026 2029.18 278.683 L2044.37 278.66 Z" fill="#000000" fill-rule="evenodd" fill-opacity="1" /><path clip-path="url(#clip410)" d="M 0 0 M2059.74 290.049 L2059.74 303.799 L2055.46 303.799 L2055.46 268.012 L2059.74 268.012 L2059.74 271.947 Q2061.08 269.632 2063.12 268.521 Q2065.18 267.387 2068.03 267.387 Q2072.75 267.387 2075.69 271.137 Q2078.65 274.887 2078.65 280.998 Q2078.65 287.109 2075.69 290.859 Q2072.75 294.609 2068.03 294.609 Q2065.18 294.609 2063.12 293.498 Q2061.08 292.363 2059.74 290.049 M2074.23 280.998 Q2074.23 276.299 2072.28 273.637 Q2070.36 270.952 2066.98 270.952 Q2063.6 270.952 2061.66 273.637 Q2059.74 276.299 2059.74 280.998 Q2059.74 285.697 2061.66 288.382 Q2063.6 291.044 2066.98 291.044 Q2070.36 291.044 2072.28 288.382 Q2074.23 285.697 2074.23 280.998 Z" fill="#000000" fill-rule="evenodd" fill-opacity="1" /><path clip-path="url(#clip410)" d="M 0 0 M2097.49 280.905 Q2092.33 280.905 2090.34 282.086 Q2088.35 283.266 2088.35 286.114 Q2088.35 288.382 2089.83 289.725 Q2091.34 291.044 2093.91 291.044 Q2097.45 291.044 2099.58 288.544 Q2101.73 286.021 2101.73 281.854 L2101.73 280.905 L2097.49 280.905 M2105.99 279.146 L2105.99 293.938 L2101.73 293.938 L2101.73 290.002 Q2100.27 292.363 2098.09 293.498 Q2095.92 294.609 2092.77 294.609 Q2088.79 294.609 2086.43 292.387 Q2084.09 290.141 2084.09 286.391 Q2084.09 282.016 2087.01 279.794 Q2089.95 277.572 2095.76 277.572 L2101.73 277.572 L2101.73 277.155 Q2101.73 274.215 2099.78 272.618 Q2097.86 270.998 2094.37 270.998 Q2092.15 270.998 2090.04 271.53 Q2087.93 272.063 2085.99 273.127 L2085.99 269.192 Q2088.33 268.29 2090.53 267.85 Q2092.72 267.387 2094.81 267.387 Q2100.43 267.387 2103.21 270.303 Q2105.99 273.22 2105.99 279.146 Z" fill="#000000" fill-rule="evenodd" fill-opacity="1" /></svg>
